<?xml version="1.0" standalone="no"?>
<!DOCTYPE svg PUBLIC "-//W3C//DTD SVG 1.1//EN" "http://www.w3.org/Graphics/SVG/1.1/DTD/svg11.dtd" >
<svg xmlns="http://www.w3.org/2000/svg">
<metadata>Generated by IcoMoon</metadata>
<defs>
<font id="cs-icon" horiz-adv-x="1024">
<font-face units-per-em="1024" ascent="960" descent="-64" />
<missing-glyph horiz-adv-x="1024" />
<glyph unicode="&#x20;" horiz-adv-x="512" d="" />
<glyph unicode="&#xe900;" glyph-name="browser-cloud-execution" d="M944.213 515.413c-1.707-3.84-3.413-7.68-5.547-11.52v-269.227h-853.333v469.333h438.613c2.987 15.36 9.813 29.867 19.627 42.667-9.813 12.8-16.64 27.307-19.627 42.667h-449.28c-40.96 0-74.667-33.707-74.667-74.667v-576c0-40.96 33.707-74.667 74.667-74.667h326.741c-5.035-21.376-18.304-56.064-53.845-91.563-6.101-6.101-7.936-15.275-4.608-23.253 3.285-7.979 11.093-13.184 19.712-13.184h298.667c8.619 0 16.427 5.205 19.712 13.184s1.451 17.152-4.608 23.253c-35.456 35.456-49.109 70.144-54.4 91.563h327.296c40.96 0 74.667 33.707 74.667 74.667v397.227c-22.187-17.067-51.2-24.747-79.787-20.48zM682.667 448c0-70.827-57.173-128-128-128h-277.333c-58.88 0-106.667 47.787-106.667 106.667 0 53.333 39.68 97.28 90.88 104.96 18.347 74.24 84.907 129.707 165.12 129.707 44.8 0 84.48-17.067 114.773-46.080l27.733-47.787c20.053-34.56 56.747-54.187 94.72-53.333 11.947-19.627 18.773-41.813 18.773-66.133zM968.661 726.656c0.811 6.613 2.005 13.141 2.005 20.011s-1.195 13.397-2.005 20.011l38.443 29.099c8.576 6.485 10.965 18.347 5.589 27.691l-34.517 59.733c-5.376 9.301-16.853 13.184-26.752 9.003l-44.245-18.645c-10.795 8.235-22.272 15.488-34.944 20.779l-5.888 46.976c-1.365 10.667-10.411 18.688-21.163 18.688h-68.992c-10.752 0-19.84-8.021-21.163-18.688l-5.888-46.976c-12.672-5.291-24.192-12.587-34.944-20.779l-44.245 18.645c-9.941 4.181-21.419 0.341-26.795-9.003l-34.475-59.733c-5.376-9.301-2.987-21.163 5.589-27.691l38.443-29.099c-0.853-6.613-2.048-13.141-2.048-20.011s1.195-13.397 2.005-20.011l-38.443-29.099c-8.576-6.485-10.965-18.347-5.589-27.691l34.517-59.733c5.376-9.301 16.853-13.184 26.752-9.003l44.245 18.688c10.795-8.235 22.272-15.488 34.944-20.779l5.888-46.976c1.365-10.709 10.411-18.731 21.163-18.731h68.992c10.752 0 19.84 8.021 21.163 18.688l5.888 46.976c12.672 5.291 24.192 12.587 34.944 20.779l44.245-18.645c9.941-4.181 21.419-0.341 26.795 9.003l34.475 59.733c5.376 9.301 2.987 21.163-5.589 27.691zM810.667 661.333c-47.147 0-85.333 38.187-85.333 85.333s38.187 85.333 85.333 85.333 85.333-38.187 85.333-85.333-38.187-85.333-85.333-85.333z" />
<glyph unicode="&#xe901;" glyph-name="CollapseTree" d="M65.62 250.66h164.651l-230.271-230.267 77.159-77.157 230.267 230.265v-164.647h109.116v350.923h-350.923zM958.38 250.66v109.116h-350.925v-350.923h109.118v164.647l230.263-230.265 77.164 77.157-230.274 230.267zM958.38 645.34h-164.653l230.274 230.267-77.164 77.157-230.263-230.265v164.647h-109.118v-350.923h350.925zM307.427 722.499l-230.267 230.265-77.159-77.157 230.271-230.267h-164.651v-109.116h350.923v350.923h-109.116z" />
<glyph unicode="&#xe902;" glyph-name="create-follow-me" d="M976.738 692.185h-94.523v94.523c0 23.631-19.692 39.385-39.385 39.385s-39.385-19.692-39.385-39.385v-94.523h-94.523c-23.631 0-39.385-19.692-39.385-39.385s19.692-39.385 39.385-39.385h94.523v-94.523c0-23.631 19.692-39.385 39.385-39.385s39.385 19.692 39.385 39.385v90.585h94.523c23.631 0 39.385 19.692 39.385 39.385s-15.754 43.323-39.385 43.323zM405.662 455.877c118.154 0 212.677 94.523 212.677 212.677s-94.523 212.677-212.677 212.677c-118.154 0-212.677-94.523-212.677-212.677s94.523-212.677 212.677-212.677zM405.662 798.523c74.831 0 133.908-59.077 133.908-133.908s-59.077-133.908-133.908-133.908-133.908 63.015-133.908 137.846 59.077 129.969 133.908 129.969zM610.462 404.677h-413.538c-110.277 0-196.923-86.646-196.923-196.923s86.646-196.923 196.923-196.923h413.538c110.277 0 196.923 86.646 196.923 196.923 3.938 110.277-86.646 196.923-196.923 196.923zM610.462 101.415h-421.415c-59.077 0-106.338 47.262-106.338 106.338s47.262 106.338 106.338 106.338h421.415c59.077 0 106.338-47.262 106.338-106.338s-47.262-106.338-106.338-106.338z" />
<glyph unicode="&#xe903;" glyph-name="create-opkey" d="M917.333 541.867l-64 12.8c-8.533 21.333-17.067 42.667-25.6 59.733l38.4 51.2c17.067 21.333 12.8 51.2-4.267 72.533l-55.467 55.467c-8.533 8.533-25.6 17.067-38.4 17.067s-21.333-4.267-34.133-8.533l-51.2-38.4c-21.333 12.8-42.667 21.333-64 25.6l-8.533 64c-4.267 25.6-25.6 46.933-55.467 46.933h-85.333c-25.6 0-51.2-21.333-55.467-46.933l-8.533-64c-21.333-8.533-42.667-17.067-59.733-25.6l-55.467 34.133c-8.533 8.533-17.067 12.8-29.867 12.8s-29.867-4.267-38.4-17.067l-59.733-55.467c-17.067-21.333-21.333-51.2-4.267-72.533l38.4-51.2c-12.8-21.333-21.333-42.667-25.6-64l-64-8.533c-25.6-4.267-46.933-25.6-46.933-55.467v-81.067c0-25.6 21.333-51.2 46.933-55.467l64-8.533c8.533-21.333 17.067-42.667 25.6-59.733l-38.4-51.2c-17.067-21.333-12.8-51.2 4.267-72.533l55.467-55.467c8.533-8.533 25.6-17.067 38.4-17.067s21.333 4.267 34.133 8.533l51.2 38.4c17.067-8.533 38.4-17.067 59.733-25.6l8.533-64c4.267-25.6 25.6-46.933 55.467-46.933h81.067c25.6 0 51.2 21.333 55.467 46.933l12.8 64c21.333 8.533 42.667 17.067 59.733 25.6l51.2-38.4c8.533-8.533 21.333-8.533 34.133-8.533s29.867 4.267 38.4 17.067l55.467 55.467c17.067 17.067 21.333 51.2 4.267 72.533l-38.4 51.2c8.533 21.333 17.067 38.4 25.6 59.733l64 8.533c25.6 4.267 46.933 25.6 46.933 55.467v81.067c8.533 29.867-12.8 51.2-38.4 55.467zM913.067 409.6v0c0-4.267 0-4.267-4.267-4.267l-81.067-12.8c-8.533 0-17.067-8.533-21.333-17.067-8.533-25.6-17.067-55.467-34.133-76.8-4.267-8.533-4.267-21.333 0-25.6l46.933-64c0 0 0-4.267 0-4.267l-51.2-68.267c0 0-4.267 0-4.267 0s0 0-4.267 0l-64 46.933c-8.533 4.267-17.067 4.267-25.6 0-25.6-12.8-51.2-25.6-76.8-34.133-8.533-4.267-17.067-8.533-17.067-21.333l-21.333-76.8c0-4.267-4.267-4.267-4.267-4.267h-81.067c-4.267 0-4.267 0-4.267 4.267l-12.8 81.067c0 8.533-8.533 17.067-17.067 21.333-25.6 8.533-51.2 17.067-76.8 29.867-4.267 4.267-8.533 4.267-12.8 4.267s-8.533 0-12.8-4.267l-64-46.933c0 0 0 0-4.267 0 0 0-4.267 0-4.267 0l-55.467 55.467c0 0 0 4.267 0 4.267l46.933 64c4.267 8.533 4.267 17.067 0 29.867-12.8 25.6-25.6 51.2-34.133 76.8-4.267 8.533-8.533 17.067-21.333 17.067l-81.067 12.8c-4.267 0-4.267 4.267-4.267 4.267v81.067c0 4.267 0 4.267 4.267 4.267l76.8 12.8c8.533 0 17.067 8.533 21.333 17.067 8.533 34.133 21.333 59.733 34.133 85.333 4.267 8.533 4.267 21.333 0 25.6l-46.933 68.267c0 0 0 4.267 0 4.267l55.467 59.733c0 0 4.267 0 4.267 0s0 0 4.267 0l64-46.933c8.533-8.533 17.067-8.533 25.6 0 25.6 12.8 51.2 25.6 76.8 34.133 8.533 4.267 17.067 8.533 17.067 21.333l12.8 81.067c0 4.267 4.267 4.267 4.267 4.267h81.067c4.267 0 4.267 0 4.267-4.267l12.8-76.8c0-8.533 8.533-17.067 17.067-21.333 29.867-8.533 55.467-17.067 81.067-34.133 8.533-4.267 21.333-4.267 25.6 0l64 46.933c0 0 0 0 4.267 0 0 0 4.267 0 4.267 0l64-59.733c0 0 0-4.267 0-8.533l-46.933-64c-4.267-8.533-4.267-17.067 0-25.6 12.8-25.6 25.6-51.2 34.133-76.8 4.267-8.533 8.533-17.067 21.333-17.067l81.067-12.8c4.267 0 4.267-4.267 4.267-4.267v-85.333zM512 644.267c-106.667 0-196.267-85.333-196.267-196.267 0-106.667 85.333-196.267 196.267-196.267 106.667 0 196.267 85.333 196.267 196.267 0 106.667-89.6 196.267-196.267 196.267zM512 302.933c-81.067 0-145.067 64-145.067 145.067s64 145.067 145.067 145.067c81.067 0 145.067-64 145.067-145.067s-64-145.067-145.067-145.067z" />
<glyph unicode="&#xe904;" d="M625.2 816v80h-402.6c-41.2 0-74.6-35.8-74.6-80v-560h656.2v448h-74.6c-57.6 0-104.4 50.2-104.4 112zM637.8 371.2c-23.2-25-61-25-84.4 0 0 0 0 0 0 0-2.8 3-5.4 6.4-7.6 10l-86 108.4c-61.4-25.8-130.6 6.8-154.6 72.6-12.8 35-10.6 74.4 6.2 107.6 4 7.8 13 10.6 20.2 6.4 1.2-0.8 2.4-1.6 3.4-2.8l39.2-42c6-6.2 15.4-5.8 21 0.4s5.6 16 0 22.2l-39.2 42c-5.8 6.2-5.8 16.4 0 22.6 1 1 2.2 2 3.4 2.8 46.4 26.6 103.6 17.8 141.2-22 33.6-36 44.2-89.8 26.8-137.2l101-92.2c3.4-2.4 6.4-5.2 9.4-8.2 23.2-25 23.2-65.6 0-90.6 0 0 0 0 0 0v0z" />
<glyph unicode="&#xe905;" d="M729.6 736h53.4l-128 137.4v-57.4c0.2-44.2 33.4-80 74.6-80z" />
<glyph unicode="&#xe906;" d="M730.4 441.4l-185.8-179.2-322.8 385.6 185.8 179.2z" />
<glyph unicode="&#xe907;" d="M148 261h656.2v-54h-656.2v54z" />
<glyph unicode="&#xe908;" d="M905 228h-597c-28.2 0-51 22.8-51 51v214.6c0 28.2 22.8 51 51 51h597c28.2 0 51-22.8 51-51v-214.6c0-28.2-22.8-51-51-51z" />
<glyph unicode="&#xe909;" d="M831.8 499c10.2 0 20.2-2.4 29.4-7 10.2-5.2 14.6-18.2 9.8-29-4.8-11-17-15.6-27.4-10.4-3.6 1.8-7.8 2.8-11.8 2.8-22.2 0-41.2-30-41.2-65.6s18.8-65.6 41.2-65.6c17.6 0 32.8 18.6 38.6 43.6h-18.2c-11.4 0-20.6 9.8-20.6 21.8s9.2 21.8 20.6 21.8h41.2c11.4 0 20.6-9.8 20.6-21.8 0-60.2-36.8-109.2-82.2-109.2s-82.2 49-82.2 109.2 36.8 109.4 82.2 109.4v0zM606 501.6c45.4 0 82.2-49 82.2-109.2s-36.8-109.2-82.2-109.2c-45.4 0-82.2 49-82.2 109.2s36.8 109.2 82.2 109.2zM344.4 473.6c0 12 9.2 21.8 20.6 21.8s20.6-9.8 20.6-21.8v-152.8h61.6c11.4 0 20.6-9.8 20.6-21.8s-9.2-21.8-20.6-21.8h-82.2c-11.4 0-20.6 9.8-20.6 21.8v174.6z" />
<glyph unicode="&#xe90a;" d="M148 64c0-44.2 33.4-80 74.6-80h507c41.2 0 74.6 35.8 74.6 80v144h-656.2v-144z" />
<glyph unicode="&#xe90b;" d="M654 392.4c0-39.102-21.669-70.8-48.4-70.8s-48.4 31.698-48.4 70.8c0 39.102 21.669 70.8 48.4 70.8s48.4-31.698 48.4-70.8z" />
<glyph unicode="&#xe90c;" glyph-name="download-new" d="M458.574 817.53v-596.591l-155.826 160.278c-17.809 22.261-48.974 26.713-71.235 8.904s-31.165-48.974-13.357-71.235c0-4.452 4.452-4.452 4.452-4.452l244.87-244.87c0 0 0-4.452 4.452-4.452 8.904-8.904 22.261-13.357 35.617-13.357h4.452c13.357 0 26.713 4.452 35.617 13.357 0 0 0 4.452 4.452 4.452l240.417 244.87c17.809 17.809 17.809 53.426 0 71.235 0 0 0 0 0 0-17.809 17.809-53.426 22.261-71.235 0 0 0 0 0 0 0l-160.278-164.73v596.591c0 26.713-22.261 44.522-44.522 44.522-40.070 4.452-57.878-17.809-57.878-44.522z" />
<glyph unicode="&#xe90d;" glyph-name="ExpandTree" d="M342.28 363.392l-232.232-232.232v166.050h-110.047v-353.915h353.917v110.047h-166.056l232.236 232.232zM913.953 131.16l-232.228 232.228-77.818-77.814 232.236-232.232h-166.058v-110.047h353.915v353.915h-110.047zM670.085 952.705v-110.047h166.058l-232.236-232.232 77.818-77.816 232.228 232.228v-166.052h110.047v353.919zM353.917 842.658v110.047h-353.917v-353.919h110.047v166.054l232.232-232.23 77.818 77.816-232.236 232.232z" />
<glyph unicode="&#xe90e;" glyph-name="globe" d="M932.782 739.31c-11.77 17.655-26.483 35.31-41.195 52.966-38.253 41.195-79.448 73.563-129.471 102.989-38.253 20.598-82.391 38.253-126.529 50.023-38.253 8.828-79.448 14.713-123.586 14.713s-88.276-5.885-129.471-17.655c-44.138-11.77-82.391-26.483-120.644-47.080-47.080-26.483-91.218-61.793-126.529-100.046-14.713-17.655-29.425-35.31-41.195-52.966-58.851-82.391-91.218-185.379-91.218-294.253 0-135.356 50.023-256 135.356-347.218 14.713-17.655 32.368-32.368 50.023-47.080 23.54-20.598 50.023-38.253 79.448-52.966 38.253-20.598 76.506-38.253 120.644-50.023 41.195-11.77 85.333-17.655 129.471-17.655 41.195 0 82.391 5.885 123.586 14.713 44.138 11.77 88.276 26.483 126.529 50.023 61.793 32.368 111.816 79.448 155.954 132.414 14.713 17.655 26.483 35.31 38.253 55.908 44.138 76.506 70.621 164.782 70.621 258.943-8.828 111.816-41.195 211.862-100.046 294.253zM850.391 739.31c-35.31-41.195-76.506-73.563-123.586-100.046-35.31 85.333-91.218 155.954-161.839 211.862 23.54 11.77 47.080 20.598 70.621 26.483 85.333-23.54 158.897-73.563 214.805-138.299zM700.322 448c0-35.31-2.943-73.563-11.77-105.931-35.31 8.828-73.563 11.77-111.816 11.77-85.333 0-167.724-20.598-241.287-58.851-17.655 47.080-26.483 100.046-26.483 153.011 0 38.253 5.885 73.563 14.713 108.874 58.851-23.54 120.644-35.31 188.322-35.31 61.793 0 120.644 11.77 176.552 32.368 8.828-35.31 11.77-70.621 11.77-105.931zM667.954 280.276c-32.368-82.391-91.218-153.011-161.839-203.034-58.851 41.195-108.874 94.161-141.241 158.897 61.793 35.31 135.356 52.966 211.862 52.966 32.368 0 61.793-2.943 91.218-8.828zM344.276 618.667c32.368 82.391 91.218 150.069 161.839 200.092 73.563-50.023 129.471-120.644 161.839-203.034-50.023-17.655-102.989-29.425-155.954-29.425-58.851 0-114.759 11.77-167.724 32.368zM509.057 895.264c0 0-2.943 0 0 0-2.943 0-2.943 0-5.885 0 2.943 0 2.943 0 5.885 0zM382.529 877.609c20.598-5.885 41.195-14.713 61.793-23.54-67.678-52.966-123.586-123.586-158.897-205.977-41.195 23.54-79.448 55.908-111.816 91.218 55.908 64.736 126.529 111.816 208.92 138.299zM64.736 448c0 88.276 26.483 170.667 70.621 241.287 38.253-41.195 82.391-76.506 129.471-102.989-11.77-44.138-17.655-91.218-17.655-138.299 0-64.736 11.77-129.471 35.31-188.322-41.195-29.425-76.506-64.736-108.874-102.989-67.678 76.506-108.874 179.494-108.874 291.31zM220.69 109.609c26.483 35.31 55.908 64.736 91.218 91.218 35.31-61.793 79.448-114.759 135.356-158.897-20.598-8.828-41.195-17.655-61.793-23.54-64.736 17.655-120.644 50.023-164.782 91.218zM503.172 0.736c2.943 0 2.943 0 0 0 2.943 0 5.885 0 5.885 0-2.943 0-2.943 0-5.885 0zM635.586 15.448c-23.54 5.885-47.080 14.713-67.678 26.483 73.563 55.908 129.471 132.414 164.782 220.69 52.966-20.598 100.046-47.080 141.241-82.391-61.793-79.448-144.184-135.356-238.345-164.782zM906.299 233.195c-44.138 38.253-97.103 67.678-155.954 88.276 8.828 38.253 14.713 82.391 14.713 123.586 0 44.138-5.885 88.276-17.655 129.471 52.966 26.483 100.046 64.736 141.241 108.874 44.138-67.678 70.621-150.069 70.621-238.345 0-76.506-17.655-147.126-52.966-211.862z" />
<glyph unicode="&#xe90f;" glyph-name="local-execution" d="M279.074 289.48l43.639-10.91-23.129-38.621c-5.455-8.946-3.928-20.511 3.491-27.711l64.368-64.368c7.419-7.419 18.983-8.728 27.711-3.491l38.403 23.129 10.91-43.639c2.618-10.037 11.564-17.238 22.038-17.238h90.988c10.473 0 19.638 7.201 22.038 17.238l10.91 43.639 38.403-23.129c8.946-5.237 20.292-3.928 27.711 3.491l64.368 64.368c7.419 7.419 8.728 18.765 3.491 27.711l-23.129 38.621 43.639 10.91c10.037 2.618 17.238 11.564 17.238 22.038v90.988c0 10.473-7.201 19.42-17.238 22.038l-43.639 10.91 23.129 38.621c5.455 8.946 3.928 20.511-3.491 27.711l-64.15 64.368c-7.419 7.419-18.983 8.728-27.711 3.491l-38.403-23.129-10.91 43.639c-2.618 10.037-11.564 17.238-22.038 17.238h-90.988c-10.473 0-19.638-7.201-22.038-17.238l-10.91-43.639-38.621 22.911c-8.946 5.237-20.292 3.928-27.711-3.491l-64.586-64.15c-7.419-7.419-8.728-18.765-3.491-27.711l23.129-38.621-43.639-10.91c-10.037-2.618-17.238-11.564-17.238-22.038v-90.988c0.218-10.473 7.419-19.638 17.456-22.038zM512.109 447.891c50.185 0 90.988-40.803 90.988-90.988s-40.803-90.988-90.988-90.988-90.988 40.803-90.988 90.988c0 50.185 40.803 90.988 90.988 90.988zM921.447 948.436h-818.895c-50.185 0-90.988-40.803-90.988-90.988v-818.895c0-50.185 40.803-90.988 90.988-90.988h818.895c50.185 0 90.988 40.803 90.988 90.988v818.895c0 50.185-40.803 90.988-90.988 90.988zM307.222 857.447c12.655 0 22.693-10.255 22.693-22.693 0-12.655-10.255-22.693-22.693-22.693-12.655 0-22.693 10.255-22.693 22.693s10.255 22.693 22.693 22.693zM216.452 857.447c12.655 0 22.693-10.255 22.693-22.693 0-12.655-10.255-22.693-22.693-22.693s-22.693 10.255-22.693 22.693c-0.218 12.437 10.037 22.693 22.693 22.693zM125.463 857.447c12.655 0 22.693-10.255 22.693-22.693 0-12.655-10.255-22.693-22.693-22.693s-22.911 10.037-22.911 22.474c0 12.655 10.255 22.911 22.911 22.911zM921.447 38.553h-818.895v682.303h818.895v-682.303z" />
<glyph unicode="&#xe910;" glyph-name="queued-sessions" d="M292.303 901.494h431.64l0.065-151.148c0.065-0.065 57.273-61.978 57.273-61.978v230c-0.032 22.942-18.009 41.632-40.951 41.632h-464.868c-22.942 0-41.567-18.691-41.567-41.632v-68.208h58.441l-0.032 51.335zM297.657 736.782h270.659l-0.389-106.401c-0.065-11.714 4.575-22.812 12.85-31.119s19.307-12.915 30.989-12.915h109.192v-258.815h63.828v251.222c0 28.198-11.39 55.326-31.378 75.282l-114.838 115.162c-20.021 20.021-47.214 31.313-75.542 31.313h-283.931c-25.018 0-45.267-20.411-45.267-45.364v-427.583h63.795v409.217zM630.715 689.114l40.691-40.237-40.691 0.065v40.172zM371.803 603.87h86.769c17.263 0 31.281 14.635 31.281 31.93s-14.018 31.898-31.281 31.898h-86.769c-17.263 0-31.281-14.57-31.281-31.865s14.018-31.962 31.281-31.962zM648.368 547.213h-276.532c-17.263 0-31.281-13.758-31.281-30.989 0-17.295 14.018-30.989 31.281-30.989h276.532c17.231 0 31.281 13.694 31.281 30.989 0 17.231-14.018 30.989-31.281 30.989zM648.368 428.514h-276.532c-17.263 0-31.281-14.635-31.281-31.8 0-17.263 14.018-31.898 31.281-31.898h276.532c17.231 0 31.281 14.635 31.281 31.898 0 17.166-14.018 31.8-31.281 31.8zM825.508 478.454v-121.295l20.281-33.131c4.446-7.204 4.608-16.192 0.487-23.558-4.121-7.398-11.876-11.909-20.313-11.909h-629.061c-8.437 0-16.192 4.575-20.313 11.844-4.121 7.398-3.959 16.387 0.454 23.591l16.095 26.349v121.295l-93.811-151.862c-12.785-20.67-19.567-44.52-19.567-68.825v-232.207c0-45.689 37.089-82.778 82.81-82.778h698.891c45.656 0 82.778 37.089 82.778 82.778v232.239c0 24.564-6.912 48.609-19.956 69.474l-98.775 157.995z" />
<glyph unicode="&#xe911;" glyph-name="record" d="M490.667 874.667c-238.933 0-430.933-192-430.933-430.933s192-430.933 430.933-430.933c238.933 0 430.933 192 430.933 430.933s-192 430.933-430.933 430.933zM490.667 110.933c-183.467 0-332.8 149.333-332.8 332.8s149.333 332.8 332.8 332.8 332.8-149.333 332.8-332.8c0-183.467-149.333-332.8-332.8-332.8zM490.667 605.867c-89.6 0-162.133-72.533-162.133-162.133s72.533-162.133 162.133-162.133c89.6 0 162.133 72.533 162.133 162.133 4.267 89.6-72.533 162.133-162.133 162.133z" />
<glyph unicode="&#xe912;" glyph-name="record-opkey-test" d="M667.063 462.629c0 2.926 0 2.926 0 5.851s-2.926 5.851-2.926 5.851c0 0 0 2.926-2.926 2.926 0 0 0 0 0 0 0 2.926-2.926 2.926-2.926 2.926-2.926 2.926-2.926 2.926-5.851 5.851 0 0 0 0 0 0l-184.32 125.806c0 0-2.926 0-2.926 0s-2.926 0-2.926 0-5.851 2.926-8.777 2.926c0 0 0 0 0 0s0 0-2.926 0-5.851 0-8.777-2.926c0 0-2.926 0-2.926 0-2.926 0-5.851-2.926-5.851-5.851 0 0-2.926-2.926-2.926-2.926s-2.926-2.926-2.926-2.926c0 0 0-2.926 0-2.926 0-2.926 0-2.926-2.926-5.851 0-2.926 0-2.926 0-5.851 0 0 0-2.926 0-2.926v-242.834c0 0 0-2.926 0-2.926 0-2.926 0-2.926 0-5.851s0-2.926 2.926-5.851c0 0 0-2.926 0-2.926s2.926 0 2.926-2.926c0-2.926 2.926-2.926 2.926-2.926 2.926 0 2.926-2.926 5.851-2.926s2.926-2.926 5.851-2.926c2.926 0 2.926 0 5.851 0 0 0 2.926 0 2.926 0s2.926 0 2.926 0 5.851 0 5.851 0 2.926 0 5.851 2.926c0 0 2.926 0 2.926 0l187.246 122.88c0 0 0 0 0 0 2.926 0 2.926 2.926 5.851 5.851 0 0 2.926 2.926 2.926 2.926s0 0 0 0 0 2.926 2.926 2.926c0 2.926 2.926 5.851 2.926 5.851-5.851 5.851-5.851 5.851-5.851 8.777zM479.817 526.994l99.474-64.366-99.474-64.366v128.731zM1018.149 775.68c-5.851 5.851-14.629 8.777-23.406 8.777h-965.486c-5.851 0-14.629-2.926-20.48-8.777s-8.777-11.703-8.777-20.48v0c0 0 0 0 0 0v0c0 0 0 0 0 0v-555.886c0 0 0 0 0 0v0c0 0 0 0 0 0v-2.926c0-14.629 11.703-29.257 29.257-29.257v0h403.749c-8.777-5.851-11.703-14.629-11.703-23.406 0-17.554 14.629-29.257 29.257-29.257h122.88c17.554 0 29.257 14.629 29.257 29.257 0 8.777-5.851 17.554-11.703 23.406h406.674c14.629 0 29.257 11.703 29.257 29.257v558.811c0 8.777-2.926 14.629-8.777 20.48zM61.44 723.017h904.046v-494.446h-904.046v494.446z" />
<glyph unicode="&#xe913;" glyph-name="record-responsive" d="M341.333 597.333h-298.667c-25.6 0-42.667 21.333-42.667 42.667v0c0 25.6 21.333 42.667 42.667 42.667h294.4c25.6 0 42.667-21.333 42.667-42.667v0c4.267-21.333-17.067-42.667-38.4-42.667zM341.333 413.867h-294.4c-25.6 0-42.667 21.333-42.667 42.667v0c0 25.6 21.333 42.667 42.667 42.667h294.4c25.6 0 42.667-21.333 42.667-42.667v0c0-21.333-21.333-42.667-42.667-42.667zM341.333 234.667h-298.667c-25.6 0-42.667 21.333-42.667 42.667v0c0 25.6 21.333 42.667 42.667 42.667h294.4c25.6 0 42.667-21.333 42.667-42.667v0c4.267-21.333-17.067-42.667-38.4-42.667zM597.333 891.733c-234.667 4.267-430.933-187.733-435.2-422.4-4.267-238.933 187.733-435.2 426.667-439.467s435.2 187.733 439.467 426.667c0 238.933-192 430.933-430.933 435.2zM588.8 128c-183.467 4.267-328.533 153.6-328.533 337.067 4.267 183.467 153.6 332.8 337.067 328.533s328.533-153.6 328.533-337.067c-4.267-183.467-153.6-328.533-337.067-328.533zM942.933-8.533l-149.333 132.267c-17.067 17.067-21.333 46.933-4.267 64v0c17.067 17.067 46.933 21.333 64 4.267l149.333-132.267c17.067-17.067 21.333-46.933 4.267-64v0c-17.067-17.067-46.933-21.333-64-4.267zM789.333 644.267c-17.067 17.067-34.133 29.867-51.2 42.667-17.067 8.533-38.4 8.533-51.2-4.267v0c-21.333-21.333-12.8-51.2 8.533-64 12.8-8.533 25.6-17.067 34.133-29.867 17.067-17.067 42.667-17.067 59.733 0 0 0 0 0 0 0 12.8 12.8 12.8 38.4 0 55.467z" />
<glyph unicode="&#xe914;" glyph-name="record-responsive-test" d="M468.608 617.941c-117.632 0-213.333-95.701-213.333-213.333s95.701-213.333 213.333-213.333 213.333 95.701 213.333 213.333-95.701 213.333-213.333 213.333zM468.608 276.608c-70.571 0-128 57.429-128 128s57.429 128 128 128 128-57.429 128-128-57.429-128-128-128zM598.784 318.549c10.923 0 21.845-4.181 30.165-12.501l126.549-126.549c16.683-16.683 16.683-43.648 0-60.331s-43.648-16.683-60.331 0l-126.549 126.549c-16.683 16.683-16.683 43.648 0 60.331 8.32 8.363 19.243 12.501 30.165 12.501zM896 917.333h-768c-70.571 0-128-57.429-128-128v-682.667c0-70.571 57.429-128 128-128h768c70.571 0 128 57.429 128 128v682.667c0 70.571-57.429 128-128 128zM896 64h-768c-23.509 0-42.667 19.115-42.667 42.667v597.333h853.333v-597.333c0-23.552-19.157-42.667-42.667-42.667z" />
<glyph unicode="&#xe915;" glyph-name="record-run-test" d="M725.577 328.046l-32.183 5.851c-2.926 11.703-8.777 23.406-14.629 32.183l20.48 26.331c8.777 11.703 5.851 26.331-2.926 38.034l-29.257 29.257c-5.851 5.851-11.703 8.777-20.48 8.777-5.851 0-11.703-2.926-17.554-5.851l-26.331-20.48c-11.703 5.851-20.48 11.703-32.183 14.629l-5.851 32.183c-2.926 14.629-14.629 23.406-29.257 23.406h-40.96c-14.629 0-26.331-11.703-29.257-23.406l-5.851-32.183c-11.703-2.926-20.48-8.777-32.183-14.629l-26.331 20.48c-5.851 2.926-11.703 5.851-17.554 5.851-8.777 0-14.629-2.926-20.48-8.777l-29.257-29.257c-8.777-8.777-11.703-26.331-2.926-38.034l20.48-26.331c-5.851-11.703-8.777-20.48-11.703-32.183l-32.183-5.851c-14.629-2.926-23.406-14.629-23.406-29.257v-40.96c0-14.629 11.703-26.331 23.406-29.257l32.183-5.851c2.926-11.703 8.777-20.48 14.629-32.183l-20.48-26.331c-8.777-11.703-5.851-26.331 2.926-38.034l29.257-29.257c5.851-5.851 11.703-8.777 20.48-8.777 5.851 0 11.703 2.926 17.554 5.851l26.331 20.48c8.777-5.851 20.48-8.777 32.183-11.703l5.851-32.183c2.926-14.629 14.629-23.406 29.257-23.406h40.96c14.629 0 26.331 11.703 29.257 23.406l5.851 32.183c11.703 2.926 23.406 8.777 32.183 14.629l26.331-20.48c5.851-2.926 11.703-5.851 17.554-5.851v0c8.777 0 14.629 2.926 20.48 8.777l29.257 29.257c8.777 8.777 11.703 26.331 2.926 38.034l-20.48 26.331c5.851 11.703 8.777 20.48 14.629 32.183l32.183 5.851c14.629 2.926 23.406 14.629 23.406 29.257v40.96c-2.926 11.703-11.703 23.406-26.331 26.331zM722.651 257.829c0 0 0-2.926 0 0l-43.886-8.777c-5.851 0-8.777-5.851-11.703-8.777-2.926-14.629-8.777-29.257-17.554-40.96-2.926-5.851-2.926-8.777 0-14.629l23.406-35.109c0 0 0-2.926 0-2.926l-29.257-29.257c0 0 0 0-2.926 0 0 0 0 0-2.926 0l-35.109 23.406c-2.926 2.926-8.777 2.926-14.629 0-11.703-8.777-26.331-14.629-40.96-17.554-5.851 0-8.777-5.851-8.777-11.703l-5.851-40.96c0 0 0-2.926-2.926-2.926h-40.96c0 0-2.926 0-2.926 2.926l-5.851 40.96c0 5.851-5.851 8.777-8.777 11.703-14.629 2.926-26.331 8.777-40.96 17.554-2.926 0-5.851 2.926-5.851 2.926-2.926 0-5.851 0-8.777-2.926l-35.109-23.406c0 0 0 0-2.926 0 0 0 0 0-2.926 0l-29.257 29.257c0 0 0 2.926 0 2.926l23.406 35.109c2.926 2.926 2.926 8.777 0 14.629-8.777 11.703-14.629 26.331-17.554 40.96 0 5.851-5.851 8.777-11.703 8.777l-40.96 5.851c0 0-2.926 0-2.926 2.926v40.96c0 0 0 2.926 2.926 2.926l40.96 5.851c5.851 0 8.777 5.851 11.703 8.777 2.926 14.629 8.777 29.257 17.554 40.96 2.926 5.851 2.926 8.777 0 14.629l-23.406 35.109c0 0 0 2.926 0 2.926l29.257 29.257c0 0 0 0 2.926 0 0 0 0 0 2.926 0l35.109-23.406c2.926-2.926 8.777-2.926 14.629 0 11.703 8.777 26.331 14.629 40.96 17.554 5.851 0 8.777 5.851 8.777 11.703l5.851 40.96c0 0 0 2.926 2.926 2.926h40.96c0 0 2.926 0 2.926-2.926l5.851-40.96c0-5.851 5.851-8.777 8.777-11.703 14.629-2.926 29.257-8.777 43.886-17.554 5.851-2.926 8.777-2.926 14.629 0l35.109 23.406c0 0 0 0 2.926 0 0 0 0 0 2.926 0l29.257-29.257c0 0 0-2.926 0-2.926l-23.406-35.109c-2.926-2.926-2.926-8.777 0-14.629 8.777-11.703 14.629-26.331 17.554-40.96 0-5.851 5.851-8.777 11.703-8.777l40.96-5.851c0 0 2.926 0 2.926-2.926l-2.926-40.96zM512 380.709c-55.589 0-102.4-46.811-102.4-102.4s46.811-102.4 102.4-102.4 102.4 46.811 102.4 102.4-43.886 102.4-102.4 102.4zM512 202.24c-40.96 0-76.069 35.109-76.069 76.069s35.109 76.069 76.069 76.069c40.96 0 76.069-35.109 76.069-76.069s-32.183-76.069-76.069-76.069zM795.794 699.611c-35.109 2.926-73.143-2.926-105.326-17.554-76.069 122.88-225.28 198.949-386.194 169.691-152.137-29.257-275.017-152.137-298.423-304.274-23.406-149.211 38.034-283.794 146.286-362.789 23.406-17.554 55.589 0 55.589 26.331v0c0 11.703-5.851 20.48-14.629 26.331-84.846 64.366-134.583 166.766-122.88 283.794 17.554 137.509 128.731 248.686 269.166 266.24 122.88 14.629 234.057-46.811 292.571-140.434 11.703-20.48 23.406-40.96 29.257-64.366 17.554 17.554 35.109 29.257 58.514 38.034 20.48 8.777 46.811 14.629 70.217 11.703 87.771-2.926 160.914-76.069 166.766-160.914 5.851-78.994-43.886-149.211-117.029-175.543-14.629-5.851-20.48-17.554-20.48-32.183v0c0-23.406 23.406-38.034 46.811-32.183 96.549 35.109 166.766 131.657 160.914 242.834-8.777 122.88-111.177 219.429-231.131 225.28z" />
<glyph unicode="&#xe916;" glyph-name="refresh" d="M1027.657 217.6l-91.429 201.143c0 0 0 0 0 3.657-3.657 7.314-7.314 10.971-10.971 14.629 0 0-3.657 0-3.657 3.657-3.657 3.657-3.657 3.657-7.314 3.657s-7.314 0-10.971 3.657c0 0-3.657 0-3.657 0-7.314 0-10.971 0-18.286-3.657 0 0 0 0 0 0l-208.457-76.8c-18.286-7.314-29.257-29.257-21.943-51.2 7.314-18.286 29.257-29.257 51.2-21.943l131.657 51.2c-58.514-131.657-182.857-219.429-329.143-219.429s-270.629 91.429-329.143 223.086c-7.314 14.629-21.943 25.6-36.571 25.6-25.6 0-43.886-25.6-32.914-47.543 69.486-164.571 223.086-281.6 402.286-281.6 175.543 0 325.486 109.714 394.971 266.971l58.514-128c7.314-18.286 32.914-29.257 51.2-18.286 14.629 10.971 25.6 32.914 14.629 51.2zM106.057 458.971c3.657-3.657 3.657-3.657 7.314-3.657s7.314 0 10.971-3.657c0 0 3.657 0 3.657 0 7.314 0 10.971 0 18.286 3.657 0 0 0 0 0 0l208.457 76.8c18.286 7.314 29.257 29.257 21.943 51.2-7.314 18.286-29.257 29.257-47.543 21.943l-131.657-51.2c58.514 131.657 182.857 219.429 329.143 219.429s270.629-91.429 329.143-223.086c7.314-14.629 21.943-25.6 36.571-25.6v0c25.6 0 43.886 25.6 32.914 47.543-69.486 164.571-223.086 277.943-398.629 277.943s-325.486-109.714-394.971-266.971l-58.514 128c-7.314 18.286-32.914 25.6-51.2 18.286-18.286-10.971-25.6-32.914-18.286-51.2l91.429-201.143c0 0 0 0 0-3.657 0-7.314 3.657-10.971 10.971-14.629 0 0 0 0 0 0z" />
<glyph unicode="&#xe917;" glyph-name="result" d="M987.36 703.946h-182.773v219.413c0 20.141-16.285 36.64-36.64 36.64h-731.306c-20.356 0-36.64-16.285-36.64-36.64v-841.013c0-80.78 65.567-146.347 146.347-146.347h731.306c80.78 0 146.347 65.567 146.347 146.347v585.173c0 20.141-16.499 36.426-36.64 36.426zM292.48 777.227h219.413c20.141 0 36.64-16.285 36.64-36.64s-16.285-36.64-36.64-36.64h-219.413c-20.141 0-36.64 16.285-36.64 36.64s16.499 36.64 36.64 36.64zM621.599 82.347h-438.827c-20.141 0-36.64 16.285-36.64 36.64s16.285 36.64 36.64 36.64h438.827c20.141 0 36.64-16.285 36.64-36.64s-16.285-36.64-36.64-36.64zM621.599 228.694h-438.827c-20.141 0-36.64 16.285-36.64 36.64s16.285 36.64 36.64 36.64h438.827c20.141 0 36.64-16.285 36.64-36.64s-16.285-36.64-36.64-36.64zM621.599 374.827h-438.827c-20.141 0-36.64 16.285-36.64 36.64 0 20.141 16.285 36.64 36.64 36.64h438.827c20.141 0 36.64-16.285 36.64-36.64 0-20.141-16.285-36.64-36.64-36.64zM621.599 521.173h-438.827c-20.141 0-36.64 16.285-36.64 36.64s16.285 36.64 36.64 36.64h438.827c20.141 0 36.64-16.285 36.64-36.64s-16.285-36.64-36.64-36.64zM950.719 82.347c0-40.497-32.783-73.066-73.066-73.066s-73.066 32.783-73.066 73.066v548.533h146.347l-0.214-548.533z" />
<glyph unicode="&#xe918;" glyph-name="run-opkey-test" d="M955.733 81.067l-132.267 115.2c59.733 72.533 93.867 166.4 93.867 264.533 0 238.933-192 430.933-430.933 430.933-238.933 4.267-435.2-192-435.2-426.667 0-238.933 192-430.933 430.933-430.933 106.667 0 200.533 38.4 277.333 102.4l136.533-119.467c17.067-17.067 46.933-12.8 64 4.267 17.067 12.8 12.8 42.667-4.267 59.733zM482.133 132.267c-183.467 0-332.8 149.333-332.8 332.8s149.333 332.8 332.8 332.8 332.8-149.333 332.8-332.8c0-183.467-149.333-332.8-332.8-332.8zM627.2 686.933c-17.067 8.533-38.4 8.533-51.2-4.267v0c-21.333-21.333-12.8-51.2 8.533-64 12.8-8.533 25.6-17.067 34.133-29.867 17.067-17.067 42.667-17.067 59.733 0 0 0 0 0 0 0 12.8 17.067 12.8 38.4 0 55.467s-29.867 29.867-51.2 42.667z" />
<glyph unicode="&#xe919;" glyph-name="search" d="M986.764 47.709l-148.945 125.673c65.164 79.127 102.4 181.527 102.4 288.582 0 265.309-209.455 474.764-470.109 474.764s-470.109-209.455-470.109-470.109c0-260.655 209.455-470.109 470.109-470.109 116.364 0 218.764 41.891 302.545 111.709l148.945-130.327c18.618-18.618 51.2-13.964 69.818 4.655 13.964 18.618 13.964 46.545-4.655 65.164zM470.109 103.564c-200.145 0-363.055 162.909-363.055 363.055s162.909 363.055 363.055 363.055 363.055-162.909 363.055-363.055c0-200.145-162.909-363.055-363.055-363.055z" />
<glyph unicode="&#xe91a;" glyph-name="sign-out" d="M597.333 776.533v0c0-21.333 12.8-38.4 29.867-46.933 136.533-55.467 230.4-204.8 200.533-371.2-25.6-132.267-128-234.667-260.267-260.267-213.333-42.667-396.8 119.467-396.8 324.267 0 136.533 85.333 256 204.8 307.2 17.067 8.533 29.867 25.6 29.867 42.667v0c0 34.133-38.4 59.733-68.267 46.933-170.667-68.267-285.867-238.933-264.533-435.2 17.067-200.533 179.2-362.667 379.733-388.267 260.267-29.867 482.133 174.933 482.133 426.667 0 179.2-110.933 332.8-264.533 396.8-34.133 17.067-72.533-4.267-72.533-42.667zM503.467 520.533v0c-25.6 0-46.933 21.333-46.933 46.933v302.933c0 25.6 21.333 46.933 46.933 46.933v0c25.6 0 46.933-21.333 46.933-46.933v-302.933c0-25.6-21.333-46.933-46.933-46.933z" />
<glyph unicode="&#xe91b;" glyph-name="user" d="M508.062 459.815c51.2 0 90.585 39.385 90.585 90.585s-39.385 90.585-90.585 90.585c-51.2 0-90.585-39.385-90.585-90.585s39.385-90.585 90.585-90.585zM508.062 877.292c-240.246 0-433.231-192.985-433.231-433.231s192.985-433.231 433.231-433.231c240.246 0 433.231 192.985 433.231 433.231s-192.985 433.231-433.231 433.231zM508.062 731.569c98.462 0 181.169-82.708 181.169-181.169s-82.708-181.169-181.169-181.169-181.169 82.708-181.169 181.169c0 102.4 82.708 181.169 181.169 181.169zM736.492 160.492c-19.692 23.631-43.323 47.262-70.892 63.015-39.385 23.631-86.646 39.385-141.785 39.385h-35.446c-51.2 0-98.462-15.754-141.785-39.385-27.569-15.754-51.2-35.446-70.892-63.015-23.631 15.754-43.323 35.446-63.015 55.138 19.692 23.631 43.323 43.323 66.954 63.015 59.077 39.385 129.969 63.015 204.8 63.015h43.323c74.831 0 145.723-23.631 204.8-63.015 23.631-15.754 47.262-39.385 66.954-63.015-15.754-19.692-39.385-39.385-63.015-55.138z" />
</font>
</defs>
</svg>
